<?xml version="1.0" encoding="UTF-8" standalone="no"?><!DOCTYPE svg PUBLIC "-//W3C//DTD SVG 1.1//EN" "http://www.w3.org/Graphics/SVG/1.1/DTD/svg11.dtd"><svg width="100%" height="100%" viewBox="0 0 51 82" version="1.1" xmlns="http://www.w3.org/2000/svg" xmlns:xlink="http://www.w3.org/1999/xlink" xml:space="preserve" xmlns:serif="http://www.serif.com/" style="fill-rule:evenodd;clip-rule:evenodd;stroke-linejoin:round;stroke-miterlimit:2;"><g id="Candle"><g id="Layer1"><rect x="0" y="48.941" width="50.4" height="26.292" style="fill:#dadada;"/><ellipse cx="25.2" cy="75.103" rx="25.2" ry="6.497" style="fill:#dadada;"/><ellipse cx="25.2" cy="48.941" rx="25.2" ry="8.165" style="fill:#c9c9c9;"/><ellipse cx="25.2" cy="48.542" rx="22.009" ry="6.314" style="fill:#fff;"/></g></g><g id="rope"><rect x="23.395" y="38.799" width="3.61" height="12.014" style="fill:#535353;"/><ellipse cx="25.2" cy="38.799" rx="1.805" ry="0.883" style="fill:#535353;"/><ellipse cx="25.2" cy="50.813" rx="1.805" ry="0.883" style="fill:#535353;"/></g><g id="Fire"><path d="M25.097,-0c0,0 22.154,18.537 22.197,31.346c0.042,12.192 -9.822,22.124 -22.014,22.166c-12.192,0.042 -22.124,-9.822 -22.165,-22.014c-0.044,-12.808 21.982,-31.498 21.982,-31.498Z" style="fill:#ff9160;"/><path d="M29.269,16.364c-4.649,9.557 8.982,8.586 9.018,19.05c0.025,7.22 -5.817,13.103 -13.038,13.127c-7.22,0.025 -13.102,-5.817 -13.127,-13.037c-0.036,-10.464 8.551,-16.111 17.147,-19.14Z" style="fill:#ffee60;"/></g></svg>