<?xml version="1.0" encoding="UTF-8" standalone="no"?><!DOCTYPE svg PUBLIC "-//W3C//DTD SVG 1.1//EN" "http://www.w3.org/Graphics/SVG/1.1/DTD/svg11.dtd"><svg width="100%" height="100%" viewBox="0 0 123 123" version="1.1" xmlns="http://www.w3.org/2000/svg" xmlns:xlink="http://www.w3.org/1999/xlink" xml:space="preserve" xmlns:serif="http://www.serif.com/" style="fill-rule:evenodd;clip-rule:evenodd;stroke-linejoin:round;stroke-miterlimit:2;"><g id="Candle"><g id="Layer1"><path d="M104.964,72.018l0,39.761l-87.459,0l0.412,-51.469l87.047,11.708Z" style="fill:#dadada;"/><ellipse cx="61.44" cy="111.552" rx="43.935" ry="11.328" style="fill:#dadada;"/><path d="M63.495,51.854c23.995,3.501 42.554,12.655 41.42,20.429c-1.134,7.774 -21.536,11.244 -45.53,7.743c-23.995,-3.501 -42.554,-12.655 -41.42,-20.429c1.134,-7.774 21.536,-11.244 45.53,-7.743Z" style="fill:#c9c9c9;"/><path d="M63.13,54.358c20.956,3.058 37.258,10.421 36.381,16.434c-0.877,6.012 -18.603,8.411 -39.56,5.354c-20.956,-3.058 -37.258,-10.421 -36.381,-16.434c0.877,-6.012 18.603,-8.411 39.56,-5.354Z" style="fill:#fff;"/></g></g><g id="rope"><rect x="58.293" y="48.258" width="6.294" height="20.946" style="fill:#535353;"/><ellipse cx="61.44" cy="48.258" rx="3.147" ry="1.539" style="fill:#fc722c;"/><ellipse cx="61.44" cy="69.204" rx="3.147" ry="1.539" style="fill:#535353;"/></g><g id="smok"><path d="M67.582,26.027l-0.001,-0c0.055,-0.658 0.054,-1.368 -0.741,-2.455c-1.399,-1.912 -4.966,-3.742 -6.442,-6.15c-0.226,-0.368 -2.094,-3.36 0.68,-6.127c2.072,-2.065 5.856,-3.2 7.149,-5.399c1.077,-1.833 0.079,-3.971 -1.267,-5.896c1.776,1.932 3.726,4.701 1.183,7.745c-2.199,2.633 -6.552,4.395 -6.106,6.862c0.491,2.713 5.676,3.542 8.263,7.028c1.19,1.604 1.277,3.336 1.293,3.645c0.066,1.32 -0.219,2.02 -0.285,2.183c-0.803,1.974 -2.996,3.198 -4.723,4.183c-2.724,1.554 -5.404,2.896 -6.072,5.392c-0.792,2.961 1.868,6.501 2.99,7.965c-3.52,-3.086 -6.96,-7.354 -3.028,-12.269c1.707,-2.134 4.306,-3.821 5.79,-5.126c1.044,-0.918 1.282,-1.304 1.317,-1.582Z" style="fill:#b2b2b2;"/></g></svg>