<?xml version="1.0" encoding="UTF-8" standalone="no"?><!DOCTYPE svg PUBLIC "-//W3C//DTD SVG 1.1//EN" "http://www.w3.org/Graphics/SVG/1.1/DTD/svg11.dtd"><svg width="100%" height="100%" viewBox="0 0 123 123" version="1.1" xmlns="http://www.w3.org/2000/svg" xmlns:xlink="http://www.w3.org/1999/xlink" xml:space="preserve" xmlns:serif="http://www.serif.com/" style="fill-rule:evenodd;clip-rule:evenodd;stroke-linejoin:round;stroke-miterlimit:2;"><g id="Candle"><g id="Layer1"><rect x="23.492" y="73.699" width="75.896" height="39.592" style="fill:#dadada;"/><ellipse cx="61.44" cy="113.096" rx="37.948" ry="9.784" style="fill:#dadada;"/><ellipse cx="61.44" cy="73.699" rx="37.948" ry="12.295" style="fill:#c9c9c9;"/><ellipse cx="61.44" cy="73.099" rx="33.143" ry="9.509" style="fill:#fff;"/></g></g><g id="rope"><rect x="58.722" y="58.427" width="5.436" height="18.092" style="fill:#535353;"/><ellipse cx="61.44" cy="58.427" rx="2.718" ry="1.329" style="fill:#535353;"/><ellipse cx="61.44" cy="76.518" rx="2.718" ry="1.329" style="fill:#535353;"/></g><g id="Fire"><path d="M61.285,0c0,0 33.361,27.915 33.427,47.203c0.063,18.359 -14.791,33.316 -33.151,33.379c-18.359,0.063 -33.316,-14.791 -33.379,-33.15c-0.066,-19.288 33.102,-47.432 33.102,-47.432Z" style="fill:#ff9160;"/><path d="M67.568,24.643c-7.001,14.391 13.526,12.929 13.58,28.688c0.037,10.873 -8.76,19.731 -19.633,19.768c-10.873,0.037 -19.731,-8.76 -19.768,-19.633c-0.054,-15.758 12.877,-24.262 25.821,-28.823Z" style="fill:#ffee60;"/></g></svg>